HIERARCHY
ROOT Hips
{
	OFFSET -14.64140 90.27770 -84.91600
	CHANNELS 6 Xposition Yposition Zposition Zrotation Xrotation Yrotation
	JOINT Spine
	{
		OFFSET 0.00000 13.20850 -1.60436
		CHANNELS 3 Zrotation Xrotation Yrotation
		JOINT Spine1
		{
			OFFSET 0.00000 8.61716 0.00000
			CHANNELS 3 Zrotation Xrotation Yrotation
			JOINT Spine2
			{
				OFFSET 0.00000 8.61717 0.00000
				CHANNELS 3 Zrotation Xrotation Yrotation
				JOINT Spine3
				{
					OFFSET 0.00000 8.61717 0.00000
					CHANNELS 3 Zrotation Xrotation Yrotation
					JOINT Neck
					{
						OFFSET 0.00000 11.07920 1.10792
						CHANNELS 3 Zrotation Xrotation Yrotation
						JOINT Neck1
						{
							OFFSET 0.00000 7.08032 0.00000
							CHANNELS 3 Zrotation Xrotation Yrotation
							JOINT Head
							{
								OFFSET 0.00000 7.08031 0.00000
								CHANNELS 3 Zrotation Xrotation Yrotation
								End site
								{
									OFFSET 0.00000 0.00000 0.00000
								}
							}
						}
					}
					JOINT RightShoulder
					{
						OFFSET -0.01000 7.91373 5.19711
						CHANNELS 3 Zrotation Xrotation Yrotation
						JOINT RightArm
						{
							OFFSET -18.41580 0.00000 0.00000
							CHANNELS 3 Zrotation Xrotation Yrotation
							JOINT RightForeArm
							{
								OFFSET -29.11090 0.00000 0.00000
								CHANNELS 3 Zrotation Xrotation Yrotation
								JOINT RightHand
								{
									OFFSET -24.65040 0.00000 0.00000
									CHANNELS 3 Zrotation Xrotation Yrotation
									JOINT RightHandThumb1
									{
										OFFSET -5.35114 -0.85590 3.97906
										CHANNELS 3 Zrotation Xrotation Yrotation
										JOINT RightHandThumb2
										{
											OFFSET -4.52789 0.00000 0.00000
											CHANNELS 3 Zrotation Xrotation Yrotation
											JOINT RightHandThumb3
											{
												OFFSET -2.46976 0.00000 0.00000
												CHANNELS 3 Zrotation Xrotation Yrotation
												End site
												{
													OFFSET 0.00000 0.00000 0.00000
												}
											}
										}
									}
									JOINT RightHandIndex1
									{
										OFFSET -14.26970 0.00000 2.88139
										CHANNELS 3 Zrotation Xrotation Yrotation
										JOINT RightHandIndex2
										{
											OFFSET -5.48836 0.00000 0.00000
											CHANNELS 3 Zrotation Xrotation Yrotation
											JOINT RightHandIndex3
											{
												OFFSET -3.01859 0.00000 0.00000
												CHANNELS 3 Zrotation Xrotation Yrotation
												End site
												{
													OFFSET 0.00000 0.00000 0.00000
												}
											}
										}
									}
									JOINT RightHandMiddle1
									{
										OFFSET -14.26970 0.00000 -0.09147
										CHANNELS 3 Zrotation Xrotation Yrotation
										JOINT RightHandMiddle2
										{
											OFFSET -6.17441 0.00000 0.00000
											CHANNELS 3 Zrotation Xrotation Yrotation
											JOINT RightHandMiddle3
											{
												OFFSET -3.56743 0.00000 0.00000
												CHANNELS 3 Zrotation Xrotation Yrotation
												End site
												{
													OFFSET 0.00000 0.00000 0.00000
												}
											}
										}
									}
									JOINT RightHandRing1
									{
										OFFSET -12.69180 0.00000 -3.06433
										CHANNELS 3 Zrotation Xrotation Yrotation
										JOINT RightHandRing2
										{
											OFFSET -5.62556 0.00000 0.00000
											CHANNELS 3 Zrotation Xrotation Yrotation
											JOINT RightHandRing3
											{
												OFFSET -3.56744 0.00000 0.00000
												CHANNELS 3 Zrotation Xrotation Yrotation
												End site
												{
													OFFSET 0.00000 0.00000 0.00000
												}
											}
										}
									}
									JOINT RightHandPinky1
									{
										OFFSET -11.11390 0.00000 -6.03719
										CHANNELS 3 Zrotation Xrotation Yrotation
										JOINT RightHandPinky2
										{
											OFFSET -4.52789 0.00000 0.00000
											CHANNELS 3 Zrotation Xrotation Yrotation
											JOINT RightHandPinky3
											{
												OFFSET -2.46976 0.00000 0.00000
												CHANNELS 3 Zrotation Xrotation Yrotation
												End site
												{
													OFFSET 0.00000 0.00000 0.00000
												}
											}
										}
									}
								}
							}
						}
					}
					JOINT LeftShoulder
					{
						OFFSET 0.01000 7.91373 5.19711
						CHANNELS 3 Zrotation Xrotation Yrotation
						JOINT LeftArm
						{
							OFFSET 18.41580 0.00000 0.00000
							CHANNELS 3 Zrotation Xrotation Yrotation
							JOINT LeftForeArm
							{
								OFFSET 29.11090 0.00000 0.00000
								CHANNELS 3 Zrotation Xrotation Yrotation
								JOINT LeftHand
								{
									OFFSET 24.65040 0.00000 0.00000
									CHANNELS 3 Zrotation Xrotation Yrotation
									JOINT LeftHandThumb1
									{
										OFFSET 5.35114 -0.85590 3.97906
										CHANNELS 3 Zrotation Xrotation Yrotation
										JOINT LeftHandThumb2
										{
											OFFSET 4.52789 0.00000 0.00000
											CHANNELS 3 Zrotation Xrotation Yrotation
											JOINT LeftHandThumb3
											{
												OFFSET 2.46977 0.00000 0.00000
												CHANNELS 3 Zrotation Xrotation Yrotation
												End site
												{
													OFFSET 0.00000 0.00000 0.00000
												}
											}
										}
									}
									JOINT LeftHandIndex1
									{
										OFFSET 14.26970 0.00000 2.88139
										CHANNELS 3 Zrotation Xrotation Yrotation
										JOINT LeftHandIndex2
										{
											OFFSET 5.48836 0.00000 0.00000
											CHANNELS 3 Zrotation Xrotation Yrotation
											JOINT LeftHandIndex3
											{
												OFFSET 3.01859 0.00000 0.00000
												CHANNELS 3 Zrotation Xrotation Yrotation
												End site
												{
													OFFSET 0.00000 0.00000 0.00000
												}
											}
										}
									}
									JOINT LeftHandMiddle1
									{
										OFFSET 14.26970 0.00000 -0.09147
										CHANNELS 3 Zrotation Xrotation Yrotation
										JOINT LeftHandMiddle2
										{
											OFFSET 6.17440 0.00000 0.00000
											CHANNELS 3 Zrotation Xrotation Yrotation
											JOINT LeftHandMiddle3
											{
												OFFSET 3.56744 0.00000 0.00000
												CHANNELS 3 Zrotation Xrotation Yrotation
												End site
												{
													OFFSET 0.00000 0.00000 0.00000
												}
											}
										}
									}
									JOINT LeftHandRing1
									{
										OFFSET 12.69180 0.00000 -3.06433
										CHANNELS 3 Zrotation Xrotation Yrotation
										JOINT LeftHandRing2
										{
											OFFSET 5.62556 0.00000 0.00000
											CHANNELS 3 Zrotation Xrotation Yrotation
											JOINT LeftHandRing3
											{
												OFFSET 3.56744 0.00000 0.00000
												CHANNELS 3 Zrotation Xrotation Yrotation
												End site
												{
													OFFSET 0.00000 0.00000 0.00000
												}
											}
										}
									}
									JOINT LeftHandPinky1
									{
										OFFSET 11.11390 0.00000 -6.03719
										CHANNELS 3 Zrotation Xrotation Yrotation
										JOINT LeftHandPinky2
										{
											OFFSET 4.52789 0.00000 0.00000
											CHANNELS 3 Zrotation Xrotation Yrotation
											JOINT LeftHandPinky3
											{
												OFFSET 2.46976 0.00000 0.00000
												CHANNELS 3 Zrotation Xrotation Yrotation
												End site
												{
													OFFSET 0.00000 0.00000 0.00000
												}
											}
										}
									}
								}
							}
						}
					}
					JOINT pCube4
					{
						OFFSET 0.00000 10.91090 1.10792
						CHANNELS 3 Zrotation Xrotation Yrotation
						End site
						{
							OFFSET 0.00000 0.00000 0.00000
						}
					}
				}
			}
		}
	}
	JOINT RightUpLeg
	{
		OFFSET -9.98441 0.00000 0.00000
		CHANNELS 3 Zrotation Xrotation Yrotation
		JOINT RightLeg
		{
			OFFSET 0.00000 -42.11790 0.00000
			CHANNELS 3 Zrotation Xrotation Yrotation
			JOINT RightFoot
			{
				OFFSET 0.00000 -45.00020 -0.00001
				CHANNELS 3 Zrotation Xrotation Yrotation
				JOINT RightForeFoot
				{
					OFFSET 0.00000 -3.74820 0.00000
					CHANNELS 3 Zrotation Xrotation Yrotation
					JOINT RightToeBase
					{
						OFFSET 0.00000 0.06325 14.43120
						CHANNELS 3 Zrotation Xrotation Yrotation
						End site
						{
							OFFSET 0.00000 0.00000 0.00000
						}
					}
				}
			}
		}
	}
	JOINT LeftUpLeg
	{
		OFFSET 9.98441 0.00000 0.00000
		CHANNELS 3 Zrotation Xrotation Yrotation
		JOINT LeftLeg
		{
			OFFSET 0.00000 -42.11800 0.00000
			CHANNELS 3 Zrotation Xrotation Yrotation
			JOINT LeftFoot
			{
				OFFSET 0.00000 -45.00070 0.00000
				CHANNELS 3 Zrotation Xrotation Yrotation
				JOINT LeftForeFoot
				{
					OFFSET 0.00000 -3.74824 0.00000
					CHANNELS 3 Zrotation Xrotation Yrotation
					JOINT LeftToeBase
					{
						OFFSET 0.00000 0.06325 14.43110
						CHANNELS 3 Zrotation Xrotation Yrotation
						End site
						{
							OFFSET 0.00000 0.00000 0.00000
						}
					}
				}
			}
		}
	}
}
MOTION
Frames: 4
Frame Time: 0.050000
-0.019098965067174387 0.03789909868292891 -0.03250015811982474 -0.024873859254505654 0.03562935823793716 -0.028426016435209346 -3.1694226802643595 0.4378145581290993 -0.7494129898312814 -1.1255640834438336 3.799062329127352 0.4340825527707105 -1.3256435544914809 -2.087546786441042 -1.0117161837592308 -0.38048266274037257 0.4912798954307105 -0.7751542893602521 -0.5264388145517656 13.324268862245987 2.3892376926442966 0.4322317676727383 0.1510839980930308 4.390296457715519 -0.04157586254949251 -14.683553968250203 0.35344998653931464 -4.878978214412865 1.7703577024595174 -15.27695698066296 73.35616298203868 19.78598711193284 -0.9636297942243145 2.734709701969782 2.428262571845697 42.07036671790481 23.23067493218144 -0.1587083503678815 -4.214362298711244 4.540379986094963 -0.09134300943345904 -1.6360823583888364 -0.011234737969468332 -0.018017791665264363 -56.194445414768914 -0.033144418343847036 0.01186426821099945 -56.21047410282875 -38.74574858138345 -0.015531301845053469 0.026777278771198596 0.03421790021006793 -0.030905331236002996 0.016459622778455658 -0.025329919619178968 0.02684086145309136 -0.005744788131325153 -36.691916151381704 -0.0018047186960761903 -0.0036306211975157105 -0.0022440402615795433 0.03742412564179912 -0.0024843365015496813 0.0471154797460013 0.02624967644106331 0.014127438172632886 -19.803992522438435 -0.01605906146273463 -0.03414077550303558 -0.00879882207055763 -0.005185068175629852 0.004855065023196006 -0.026809222156340764 -0.013187654950827118 0.03453011767483435 24.083258442274687 -0.006393208515373146 0.0243659529062207 28.901610729458216 -0.041602388655696286 -0.02056047799892498 28.87387347260097 -0.02748074850109245 -0.015475547170833544 6.171188014003923 1.354189304605751 13.893642895828473 -72.58869967991875 25.462884684177798 -4.097141202209214 -0.7260596083987121 -11.16599579438538 -42.476935909624046 -9.5008142531914 -0.22979420546620843 3.1025712688863365 -0.4514261149548381 0.08328393104716747 -8.142548412182094 0.003117388944929485 -0.04624001549933019 44.60229987072459 0.010942393303305943 0.012058180127324736 44.538376208184204 12.453489180123473 -0.026007632718651932 0.010819194512225287 -0.04888701981992383 -0.02440212531807072 0.04489894415006385 -0.015858490647425644 -0.04293813869228399 -0.045636545952194546 11.139754806715189 -0.022526554819299237 -0.0012737989571655658 0.021407314563589235 0.0015684599592366638 0.007285755037012749 -0.0069294120307650245 0.03981826876754465 -0.032544810301510366 4.791400488982966 0.010607624981987954 -0.0057570850353789475 0.027580249206880635 -0.033835798781078535 0.01949706145630374 -0.044230401006596684 0.03199167464625764 -0.025970283726768417 -5.643228290978109 -0.027735093790532787 -0.048685203495054355 -6.688115058007334 -0.028866120685882277 0.000666251655178239 -6.732429273547099 -0.019144562457398963 0.0237560204164105 -0.01365282783364657 -0.02009195742757451 -0.042881364303360196 8.07665774964762 3.508443039554126 -19.20218907356255 -0.008237304767644216 10.392878055726587 0.02789367906165252 -5.637303778918418 -15.699212513165332 3.1962856268055524 0.029488701905269706 -0.007787050199802627 0.0356417246397399 0.010276080294642574 4.665704156713283 -0.00772623981898722 12.416167435008623 -8.195403696722208 6.849253966264565 0.03354287255048755 46.39866358685853 0.012016837441296786 -4.280893917093154 -14.715643377037178 -3.802264171552136 0.047955288150818585 -0.027111618606581053 -0.002258214938941276 0.004517604485720244 -10.703227283236025 -0.04411674292831226 
0.026559892213254117 -0.03208210079427873 0.011971826324680093 0.01720114141473219 -0.026514264763430696 -0.004398437189253969 -3.1798015689597032 0.49474198831856786 -0.7171170688710893 -1.11932090309938 3.859686563601611 0.39218509786359645 -1.3307635822377275 -2.121449385091038 -1.13605435346823 -0.3983587728035407 0.5886153621210174 -0.7798485506532337 -0.6066355134263137 13.438774186090049 2.4487607780691443 0.3984995762021095 0.15292967765919813 4.661162711984559 -0.1967973136408211 -14.835034684933529 0.3249048803654291 -5.140121438837694 1.8397401866213514 -15.162038293349738 72.68386512289989 20.109046476329162 -0.4375169776523499 2.476166866766874 1.9424102895626885 42.787779424300446 22.836749904715443 -0.15938108703413034 -4.235455561285926 4.488949901159458 -0.17007246913014668 -1.5984043750791797 -0.04174789507852509 0.00760160620201183 -56.192181150063426 -0.025544426158200413 -0.041455481365660865 -56.20541083371899 -38.74840650020716 0.027798980687533784 0.010242681101901269 0.032764673241054525 -0.0258579755094455 0.011997745925229567 0.021069064483712062 -0.01627038343151481 0.018173237122431248 -36.67430878098365 -0.04076970918127676 -0.03332708834048351 0.0205134718423399 -0.026254908805843035 0.0024352884145184316 -3.6210372875311086e-05 -0.02509210132399738 0.02082166127067889 -19.73071803936974 -0.030524578975799868 0.041614677746507414 -0.03766127218549516 -0.01798759068818868 -0.02235794187237593 0.019026438587650383 0.006963359897038073 0.01108680481398905 24.027832201169446 0.03727082504280126 0.01322851988128035 28.909728299193404 0.005478562655761875 0.020959350313948077 28.864500146886368 0.01825909268100056 -0.02088374558245226 6.666474107798422 1.4625477127851687 13.820640722876044 -72.07923577489963 24.23556658983731 -5.639438766850757 -0.4157097408522361 -11.72360711306785 -43.30138515207411 -8.37162418686765 0.05211238877572659 2.8083539010980516 -0.5112025165307219 0.03878603031870978 -8.140427752167472 -0.0294043497371245 0.04801003937930581 44.55766328844009 -0.04250068442108985 0.045454556779018135 44.60627395649905 12.504067059078356 -0.016957691665070176 0.017642017907789857 -0.006214067847575358 0.00690561471791724 -0.0013454777952662102 0.039524829706754964 0.0431069830815448 -0.039873644783414174 11.079891603685127 0.031020102247015523 -0.0008551148118733442 0.03571717066922037 -0.0406878348587274 0.011980489374644746 -0.026862755519024464 0.04793697875974216 -0.009824735549729721 4.752333823744669 -0.03868970226758089 0.010587607719344727 -0.004855385132681916 -0.03716727715700891 -0.029525004754442755 0.023814661800631454 -0.005440110650621391 -0.018188601855059196 -5.574935891395585 -0.005374743550629143 -0.008661537337458124 -6.7292392526943825 0.02593014661984228 0.0029200744858942913 -6.732768425671979 0.034362436464366326 0.0064309489458231886 0.03147634261766171 -0.012653168114489601 0.016365710803351606 8.028956644545477 3.4449738153490563 -19.2368379146178 0.03128453780894999 10.41016945507323 0.030067164257894442 -5.627436725935514 -15.659771864566455 3.1621305687410226 -0.016212212459086037 -0.030504655126300902 -0.03714308545270329 0.01728337083165825 4.6647547181730316 0.025817374787776095 12.470320207542096 -8.247465881406479 6.848073901844681 0.021278248084845314 46.371508631621026 -0.005029058055108504 -4.317048712695536 -14.726954148432405 -3.874829332157252 -0.004349888765489777 0.02019963523155363 0.03938624946829309 -0.043753127782557175 -10.72499613355713 0.048428355476322224 
0.01456106643089862 0.013443683535022236 0.048890879072569206 -0.03776178234088912 0.012930043341877301 0.0010645050503394473 -3.1658478656283253 0.5721559246434637 -0.6832127041361816 -1.1872457036057262 3.8099812868247733 0.4014190838224749 -1.3126576093729256 -2.102755655371087 -1.2993975326319498 -0.4854552186851694 0.598558523908514 -0.7999916530791427 -0.8134893960213351 13.629118646400533 2.9736905891924152 0.36983162368399086 0.1876286397517336 5.837867983084735 -0.3850777235389642 -14.771778065481211 0.5109517607242893 -5.272249875848986 1.8780515482216926 -15.074452743953955 71.70103624002975 20.04018946924872 -0.40849632669836944 2.2273693585565617 1.255323936192526 43.334761415604575 22.62867462842582 -0.18500586768628335 -4.3125367051781085 4.560072690176775 -0.12004796343728626 -1.627485456387127 0.005939918177187739 -0.047754263630697735 -56.194788072075234 -0.01338626233845855 -0.04400896371656184 -56.253108198519364 -38.77060716023018 0.03283124983891462 0.03323845249267757 -0.028351614145073943 -0.00044459029857732993 -0.04041797251553863 0.010840488296040824 -0.019916513768740516 0.02166021247268577 -36.673201111608016 0.011336273503406718 -0.02992006464721757 -0.026178376045264243 0.0187497960505371 0.007370119396523246 -0.04870387534531263 0.02670433546796169 0.01262163063933609 -19.77036045119839 -0.02147688786220228 -0.037854272118052236 0.006723533923808582 0.017904606074473875 -0.025383239899307804 0.003214592868834113 0.03411758416632637 0.03905292583527835 24.083669980579987 0.00496624267429078 -0.03370182358256276 28.844010969947416 0.04607345336892349 -0.038020770976960064 28.88640439837499 0.0031928208794381155 0.02294023400609207 7.362212020610496 1.554067327911338 13.74094555135707 -71.62201287770266 22.918604388596986 -7.653388547566758 0.2552347231564689 -12.563902431647398 -44.34534737960018 -7.2411244278747455 0.40796413417904 2.635648826624195 -0.48600410423952184 0.05040123806784874 -8.162572712649073 0.012823306441728983 -0.0069006860380580425 44.58008317938502 0.0031984679487978515 -0.02297932600131839 44.55180593471475 12.469243653083991 -0.02211654014168881 -0.03619439229573377 0.035202005922735626 -0.014495243769182363 0.04984746222223108 0.001532561581029448 0.013338197077972498 -0.01697452823690276 11.075410260221533 -0.027586803794988422 0.011411317932794542 0.003165430789635346 0.011986681078890341 0.005174759255905123 -0.00882185252118334 0.03561194952753422 -0.00024303918193010918 4.781421721229088 -0.021372091696275408 0.04105934610193822 0.016192950124782945 0.026155303287546162 0.010928447162599055 -0.02952429233212833 -0.0157469201281448 -0.01734608760455671 -5.605273457204356 -0.014677872046950839 -0.03962189409350512 -6.680443038033735 -0.016112676375974112 -0.022449243157644818 -6.722409046408715 -0.023516782013887953 -0.014262636282912083 -0.03275271194161696 -0.04461984704398494 0.002360635546949676 8.045049627764575 3.4809140462638877 -19.206119258062543 -0.016492859769559644 10.396980296586428 0.0216385272810965 -5.574342219045597 -15.662836486512093 3.164652924277861 0.024518840127391153 0.04126996113525343 -0.03334881701577627 0.01823736754602746 4.652946258441371 0.04724588583120323 12.466631288087006 -8.190185966781188 6.880033376282247 -0.040738186971077985 46.42550262522017 -0.03285320647327887 -4.335240502991895 -14.76344794767991 -3.806426137718284 0.0252696976824915 -5.243543251891959e-05 0.02613889060391613 0.022792645424103954 -10.79352454463109 -0.003058013125040266 
0.01684828396403644 0.006032393651087819 0.027756583549886346 0.03283226790214438 -0.008752183968101668 -0.01994208443587675 -3.15308834511869 0.5496141305998914 -0.6884395930740318 -1.1315800379894567 3.896571958103444 0.40629297051810465 -1.2640732471547507 -2.1359835462524446 -1.4204764555900333 -0.5207884932788502 0.5474742084817021 -0.8860329513056292 -0.9735167609070073 13.958722551008915 3.4097436581512572 0.320467474046328 0.2704813971763693 7.065190676384644 -0.6230329957025502 -14.643466360792571 0.5432715221103519 -5.5408630593915085 1.9305955975501021 -15.012205603624034 70.64291114631366 20.079927853561983 -0.043661400297828876 2.389404983671319 0.812604438431816 44.413393389303685 22.452560292445014 -0.196348773006879 -4.398305462445867 4.537833284201231 -0.11466266616605075 -1.593072849203386 0.022597468054937796 -0.0026005229162409777 -56.264155493557794 0.024183071405311403 0.006606111557952242 -56.21196561927129 -38.79769302108315 0.005880937800238117 0.0007730824275764166 -0.03511968400428195 -0.008758330626076102 -0.04568163361111321 0.04330131134248344 0.010260598490661067 0.04426128144832244 -36.680566141175106 0.04820020253138268 0.013550199019241736 -0.028634825215047635 -0.048281037721410826 0.006963064249615728 -0.0448909728080821 -0.03074117570446443 0.001572991386573574 -19.70908422970439 0.013859627031706108 -0.0017700678503665824 -0.004097641971686946 0.03266440325742924 0.020838987593930075 0.008170723014379322 -0.022425134688633695 -0.024063966860079253 24.053811776321087 -0.01225677869505285 -0.032386963302179314 28.873557230990233 -0.004692307337216988 0.00547647432952267 28.872230555550747 0.034891465267260516 0.03015793343144501 8.203457127879945 1.7115167432702185 13.710454150669527 -70.86565070001879 20.893589553828942 -10.235059913697267 0.6058178014303711 -13.253356186936584 -46.167719904785166 -6.1659669560909185 0.8024085464386125 2.38121661042844 -0.4603013703706289 0.026548240950675983 -8.08981133616782 0.019116019776448796 0.027624602921546823 44.541708329821844 -0.00619204749524426 0.016284487904796884 44.6085985916354 12.425033183203865 0.04067353621964921 0.009920207529835395 -0.015138009803260254 -0.022740950353741015 -0.03380333422559489 0.005049923867415373 -0.033059244712443384 0.02396299578832664 11.131266758993897 -0.042181048970315785 -0.04057830418356118 0.01896639917158554 0.03383071231996976 -0.02793516007046206 -0.04458337509156389 0.018505994486323753 -0.03783850392933623 4.793373807999297 -0.049304347931766225 0.045062937597060086 0.02247627694282778 -0.03990000503477128 0.012877315354680032 -0.03731508487332296 0.04567174615897573 -0.04804326385559544 -5.583403593306593 -0.010759011156000855 0.037741106652332365 -6.7237103016536155 -0.011073221822495531 -0.028416346284138354 -6.679979523563411 -0.042921500399098346 -0.006712744967522902 -0.030847025194458227 -0.039743155808456436 -0.010788295449541605 8.093474015388132 3.453844026017063 -19.209114134253774 -0.040968159099675834 10.397020035605554 -0.011838946110133149 -5.6407879727183206 -15.637286877620815 3.178857318482614 0.035919170496952355 -0.015103466112645023 -0.025472062108606565 0.03138783807594442 4.686455195817883 0.02490423181381938 12.47840191978351 -8.206170506643568 6.924449274977058 -0.036237422461915504 46.38013830013689 0.05028365115393651 -4.37334005730333 -14.743356184304785 -3.8248291825976817 0.01396788561679914 -0.035651358181726614 0.0015731442815142705 -0.009986483975930934 -10.711560078452154 -0.02139055414999321 
